<?xml version="1.0" encoding="iso-8859-1"?>
<!-- Generator: Adobe Illustrator 19.1.0, SVG Export Plug-In . SVG Version: 6.00 Build 0)  -->
<svg version="1.1" id="Capa_1" xmlns="http://www.w3.org/2000/svg" xmlns:xlink="http://www.w3.org/1999/xlink" x="0px" y="0px"
	 viewBox="0 0 489 489" style="enable-background:new 0 0 489 489;" xml:space="preserve">
<g>
	<g>
		<path d="M417.4,71.6C371.2,25.4,309.8,0,244.5,0S117.8,25.4,71.6,71.6S0,179.2,0,244.5s25.4,126.7,71.6,172.9S179.2,489,244.5,489
			s126.7-25.4,172.9-71.6S489,309.8,489,244.5S463.6,117.8,417.4,71.6z M244.5,462C124.6,462,27,364.4,27,244.5S124.6,27,244.5,27
			S462,124.6,462,244.5S364.4,462,244.5,462z"/>
		<path d="M236.1,169.2c-5.3-5.3-13.8-5.3-19.1,0s-5.3,13.8,0,19.1l56.2,56.2L217,300.7c-5.3,5.3-5.3,13.8,0,19.1
			c2.6,2.6,6.1,4,9.5,4s6.9-1.3,9.5-4l65.7-65.7c5.3-5.3,5.3-13.8,0-19.1L236.1,169.2z"/>
	</g>
</g>
<g>
</g>
<g>
</g>
<g>
</g>
<g>
</g>
<g>
</g>
<g>
</g>
<g>
</g>
<g>
</g>
<g>
</g>
<g>
</g>
<g>
</g>
<g>
</g>
<g>
</g>
<g>
</g>
<g>
</g>
</svg>
