<?xml version="1.0" encoding="iso-8859-1"?>
<!-- Generator: Adobe Illustrator 19.0.0, SVG Export Plug-In . SVG Version: 6.00 Build 0)  -->
<svg version="1.1" id="Layer_1" xmlns="http://www.w3.org/2000/svg" xmlns:xlink="http://www.w3.org/1999/xlink" x="0px" y="0px"
	 viewBox="0 0 512 512" style="enable-background:new 0 0 512 512;" xml:space="preserve">
<g>
	<g>
		<path d="M437.019,74.98C388.667,26.628,324.381,0,256,0S123.333,26.628,74.982,74.98C26.628,123.333,0,187.62,0,256
			s26.628,132.667,74.982,181.02C123.333,485.372,187.619,512,256,512s132.667-26.628,181.019-74.98
			C485.372,388.667,512,324.38,512,256S485.372,123.333,437.019,74.98z M256,491.602c-129.911,0-235.602-105.69-235.602-235.602
			S126.089,20.398,256,20.398S491.602,126.089,491.602,256S385.911,491.602,256,491.602z"/>
	</g>
</g>
<g>
	<g>
		<path d="M450.364,178.795c-21.665-54.498-65.541-97.656-120.378-118.408c-5.269-1.994-11.154,0.661-13.149,5.929
			s0.66,11.155,5.929,13.149c49.491,18.728,89.089,57.68,108.642,106.866c1.59,3.998,5.425,6.434,9.481,6.434
			c1.254,0,2.529-0.234,3.765-0.724C449.888,189.96,452.445,184.029,450.364,178.795z"/>
	</g>
</g>
<g>
	<g>
		<path d="M291.371,49.898c-11.605-1.979-23.504-2.981-35.371-2.981c-5.632,0-10.199,4.566-10.199,10.199S250.368,67.315,256,67.315
			c10.721,0,21.468,0.906,31.943,2.691c0.58,0.099,1.157,0.147,1.726,0.147c4.88,0,9.194-3.514,10.042-8.486
			C300.657,56.113,296.923,50.844,291.371,49.898z"/>
	</g>
</g>
<g>
	<g>
		<path d="M205.581,126.674c-19.525,0-35.41,15.884-35.41,35.409v187.835c0,19.524,15.884,35.409,35.41,35.409
			c19.524,0,35.409-15.884,35.409-35.409V162.083C240.99,142.558,225.106,126.674,205.581,126.674z M220.591,349.917
			c0,8.277-6.734,15.01-15.01,15.01c-8.277,0-15.011-6.734-15.011-15.01V162.083c0-8.277,6.735-15.01,15.011-15.01
			c8.278,0,15.01,6.734,15.01,15.01V349.917z"/>
	</g>
</g>
<g>
	<g>
		<path d="M306.419,126.674c-19.524,0-35.409,15.884-35.409,35.409v187.835c0,19.524,15.884,35.409,35.409,35.409
			c19.524,0,35.409-15.884,35.41-35.409V162.083C341.828,142.558,325.944,126.674,306.419,126.674z M321.43,349.917
			c0,8.277-6.734,15.01-15.011,15.01s-15.01-6.734-15.01-15.01V162.083c0-8.277,6.734-15.01,15.01-15.01s15.01,6.734,15.011,15.01
			V349.917z"/>
	</g>
</g>
<g>
</g>
<g>
</g>
<g>
</g>
<g>
</g>
<g>
</g>
<g>
</g>
<g>
</g>
<g>
</g>
<g>
</g>
<g>
</g>
<g>
</g>
<g>
</g>
<g>
</g>
<g>
</g>
<g>
</g>
</svg>
