<?xml version="1.0" encoding="iso-8859-1"?>
<!-- Generator: Adobe Illustrator 19.0.0, SVG Export Plug-In . SVG Version: 6.00 Build 0)  -->
<svg version="1.1" id="Capa_1" xmlns="http://www.w3.org/2000/svg" xmlns:xlink="http://www.w3.org/1999/xlink" x="0px" y="0px"
	 viewBox="0 0 512 512" style="enable-background:new 0 0 512 512;" xml:space="preserve">
<g>
	<g>
		<path d="M372.636,243.928L218.754,138.256c-2.328-1.599-5.349-1.776-7.846-0.46c-2.498,1.315-4.063,3.905-4.063,6.729v36
			c0,4.199,3.405,7.604,7.604,7.604c4.199,0,7.604-3.405,7.604-7.604V158.97l132.845,91.226l-132.845,91.227v-94.156
			c0-4.199-3.405-7.604-7.604-7.604c-4.199,0-7.604,3.405-7.604,7.604V355.87c0.001,2.824,1.564,5.414,4.063,6.729
			c1.112,0.586,2.328,0.875,3.541,0.875c1.51,0,3.014-0.449,4.305-1.335l153.882-105.674c2.065-1.418,3.299-3.762,3.299-6.269
			C375.935,247.69,374.701,245.346,372.636,243.928z"/>
	</g>
</g>
<g>
	<g>
		<path d="M413.343,98.657C371.316,56.628,315.437,33.483,256,33.483S140.684,56.628,98.657,98.657
			C56.628,140.684,33.483,196.563,33.483,256s23.145,115.316,65.174,157.343c42.028,42.028,97.907,65.173,157.343,65.173
			c59.436,0,115.316-23.145,157.343-65.173c42.027-42.028,65.173-97.906,65.173-157.343S455.371,140.684,413.343,98.657z
			 M256,463.308c-114.311,0-207.309-92.997-207.309-207.308S141.689,48.691,256,48.691S463.308,141.689,463.308,256
			S370.311,463.308,256,463.308z"/>
	</g>
</g>
<g>
	<g>
		<path d="M437.019,74.981C388.668,26.629,324.38,0,256,0c-42.212,0-84.054,10.493-121.002,30.347
			c-3.7,1.987-5.088,6.597-3.099,10.297c1.986,3.699,6.596,5.088,10.297,3.099C176.939,25.075,216.291,15.208,256,15.208
			c132.773,0,240.792,108.019,240.792,240.792S388.773,496.792,256,496.792S15.208,388.773,15.208,256
			c0-65.931,26.131-127.465,73.58-173.266c3.021-2.916,3.106-7.731,0.19-10.752c-2.917-3.02-7.731-3.107-10.752-0.19
			c-24.475,23.625-43.719,51.36-57.196,82.436C7.076,186.404,0,220.645,0,256c0,68.38,26.629,132.668,74.981,181.019
			S187.62,512,256,512s132.668-26.629,181.019-74.981C485.37,388.667,512,324.38,512,256S485.371,123.332,437.019,74.981z"/>
	</g>
</g>
<g>
</g>
<g>
</g>
<g>
</g>
<g>
</g>
<g>
</g>
<g>
</g>
<g>
</g>
<g>
</g>
<g>
</g>
<g>
</g>
<g>
</g>
<g>
</g>
<g>
</g>
<g>
</g>
<g>
</g>
</svg>
